<svg width="32" height="32" viewBox="0 0 32 32" fill="none" xmlns="http://www.w3.org/2000/svg">
<path d="M12.9297 16.0312C12.9297 15.8281 12.8932 15.638 12.8203 15.4609C12.7526 15.2839 12.6354 15.1172 12.4688 14.9609C12.2969 14.8099 12.0729 14.6719 11.7969 14.5469C11.526 14.4167 11.1875 14.2969 10.7812 14.1875C10.151 14.0156 9.59635 13.8073 9.11719 13.5625C8.64323 13.3177 8.25521 13.0495 7.95312 12.7578C7.65104 12.4661 7.42188 12.1432 7.26562 11.7891C7.11458 11.4349 7.03906 11.0495 7.03906 10.6328C7.03906 10.1536 7.14062 9.71875 7.34375 9.32812C7.54688 8.9375 7.82812 8.60417 8.1875 8.32812C8.54688 8.05208 8.97135 7.84115 9.46094 7.69531C9.95052 7.54427 10.4818 7.46875 11.0547 7.46875C11.6484 7.46875 12.1901 7.55469 12.6797 7.72656C13.1745 7.89844 13.599 8.13802 13.9531 8.44531C14.3073 8.75781 14.5833 9.1276 14.7812 9.55469C14.9792 9.98177 15.0781 10.4505 15.0781 10.9609H12.9375C12.9271 10.7057 12.8802 10.4714 12.7969 10.2578C12.7188 10.0443 12.6016 9.85938 12.4453 9.70312C12.2839 9.55208 12.0833 9.4349 11.8438 9.35156C11.6094 9.26302 11.3333 9.21875 11.0156 9.21875C10.724 9.21875 10.4635 9.25521 10.2344 9.32812C10.0104 9.39583 9.82031 9.49219 9.66406 9.61719C9.50781 9.7474 9.38802 9.90104 9.30469 10.0781C9.22656 10.25 9.1875 10.4375 9.1875 10.6406C9.1875 10.8542 9.23958 11.0469 9.34375 11.2188C9.45312 11.3906 9.60938 11.5443 9.8125 11.6797C10.0156 11.8203 10.2604 11.9479 10.5469 12.0625C10.8385 12.1771 11.1667 12.2839 11.5312 12.3828C11.9219 12.4922 12.2943 12.625 12.6484 12.7812C13.0026 12.9375 13.3281 13.1172 13.625 13.3203C14.0729 13.6536 14.4297 14.0417 14.6953 14.4844C14.9609 14.9271 15.0938 15.4375 15.0938 16.0156C15.0938 16.5156 14.9922 16.9609 14.7891 17.3516C14.5911 17.737 14.3151 18.0625 13.9609 18.3281C13.6068 18.599 13.1849 18.8047 12.6953 18.9453C12.2057 19.0807 11.6719 19.1484 11.0938 19.1484C10.526 19.1484 9.96354 19.0651 9.40625 18.8984C8.85417 18.7266 8.3724 18.4766 7.96094 18.1484C7.57031 17.8255 7.26042 17.4453 7.03125 17.0078C6.80729 16.5703 6.69531 16.0573 6.69531 15.4688H8.85156C8.86198 15.8125 8.92188 16.1068 9.03125 16.3516C9.14062 16.5964 9.29427 16.7969 9.49219 16.9531C9.6849 17.1094 9.91667 17.224 10.1875 17.2969C10.4635 17.3698 10.7656 17.4062 11.0938 17.4062C11.3854 17.4062 11.6432 17.3724 11.8672 17.3047C12.0964 17.237 12.2891 17.1432 12.4453 17.0234C12.6016 16.9036 12.7214 16.7604 12.8047 16.5938C12.888 16.4219 12.9297 16.2344 12.9297 16.0312Z" fill="#DD7A4C"/>
<path d="M16.9766 25V13.625H19.9219C20.4479 13.625 20.9401 13.6901 21.3984 13.8203C21.8568 13.9453 22.2734 14.125 22.6484 14.3594C22.9766 14.5521 23.2682 14.7891 23.5234 15.0703C23.7839 15.3464 24.0104 15.6484 24.2031 15.9766C24.4271 16.3776 24.599 16.8203 24.7188 17.3047C24.8438 17.7891 24.9062 18.3047 24.9062 18.8516V19.7891C24.9062 20.3151 24.849 20.8125 24.7344 21.2812C24.6198 21.75 24.4583 22.1797 24.25 22.5703C24.0521 22.9193 23.8203 23.2422 23.5547 23.5391C23.2891 23.8307 22.9974 24.0755 22.6797 24.2734C22.3099 24.5078 21.901 24.6875 21.4531 24.8125C21.0104 24.9375 20.5365 25 20.0312 25H16.9766ZM19.1875 15.4062V23.2344H20.0312C20.3021 23.2344 20.5547 23.2005 20.7891 23.1328C21.0234 23.0651 21.237 22.9661 21.4297 22.8359C21.6276 22.7005 21.8047 22.5286 21.9609 22.3203C22.1224 22.1068 22.2604 21.8594 22.375 21.5781C22.4688 21.3333 22.5391 21.0625 22.5859 20.7656C22.638 20.4635 22.6641 20.138 22.6641 19.7891V18.8359C22.6641 18.5078 22.638 18.1979 22.5859 17.9062C22.5391 17.6094 22.4688 17.3385 22.375 17.0938C22.2604 16.8021 22.1094 16.5417 21.9219 16.3125C21.7396 16.0833 21.526 15.8958 21.2812 15.75C21.0938 15.6406 20.8854 15.5573 20.6562 15.5C20.4323 15.4375 20.1875 15.4062 19.9219 15.4062H19.1875Z" fill="#DD7A4C"/>
</svg>
